<mxfile host="app.diagrams.net" modified="2022-01-23T10:46:25.166Z" agent="5.0 (Macintosh; Intel Mac OS X 10_15_7) AppleWebKit/605.1.15 (KHTML, like Gecko) Version/15.3 Safari/605.1.15" etag="qLOHrG1-d2Sxfi-wsnN-" version="16.4.5" type="github">
  <diagram name="Page-1" id="197159a0-c6a4-9194-75a8-e4174976684c">
    <mxGraphModel dx="788" dy="459" grid="1" gridSize="10" guides="1" tooltips="1" connect="1" arrows="1" fold="1" page="1" pageScale="1.5" pageWidth="1169" pageHeight="826" background="none" math="0" shadow="0">
      <root>
        <mxCell id="0" style=";html=1;" />
        <mxCell id="1" style=";html=1;" parent="0" />
        <mxCell id="1257a543d1cacc4b-5" value="VMS-2" style="shadow=0;dashed=0;html=1;strokeColor=none;fillColor=#4495D1;labelPosition=center;verticalLabelPosition=bottom;verticalAlign=top;shape=mxgraph.veeam.2d.vmware_host;fontSize=14;" parent="1" vertex="1">
          <mxGeometry x="387.5" y="460" width="124" height="120" as="geometry" />
        </mxCell>
        <mxCell id="1257a543d1cacc4b-34" style="edgeStyle=orthogonalEdgeStyle;rounded=0;html=1;startSize=10;endSize=10;jettySize=auto;orthogonalLoop=1;fontSize=14;endArrow=none;endFill=0;strokeColor=#808080;" parent="1" source="1257a543d1cacc4b-29" edge="1">
          <mxGeometry relative="1" as="geometry">
            <Array as="points">
              <mxPoint x="1449" y="853" />
              <mxPoint x="1305" y="853" />
            </Array>
            <mxPoint x="1305" y="810" as="targetPoint" />
          </mxGeometry>
        </mxCell>
        <mxCell id="1257a543d1cacc4b-35" style="edgeStyle=orthogonalEdgeStyle;rounded=0;html=1;startSize=10;endSize=10;jettySize=auto;orthogonalLoop=1;fontSize=14;endArrow=none;endFill=0;strokeColor=#808080;" parent="1" source="1257a543d1cacc4b-29" edge="1">
          <mxGeometry relative="1" as="geometry">
            <Array as="points">
              <mxPoint x="1449" y="853" />
              <mxPoint x="1035" y="853" />
            </Array>
            <mxPoint x="1035" y="736.0000000000002" as="targetPoint" />
          </mxGeometry>
        </mxCell>
        <mxCell id="1257a543d1cacc4b-29" value="Veeam backup server" style="shadow=0;dashed=0;html=1;strokeColor=none;fillColor=#4495D1;labelPosition=center;verticalLabelPosition=bottom;verticalAlign=top;shape=mxgraph.veeam.2d.veeam_backup_and_replication_server;fontSize=14;" parent="1" vertex="1">
          <mxGeometry x="1411.9999999999995" y="963" width="74" height="72" as="geometry" />
        </mxCell>
        <mxCell id="1257a543d1cacc4b-50" value="" style="line;strokeWidth=3;html=1;fillColor=none;gradientColor=none;fontSize=14;strokeColor=#808080;" parent="1" vertex="1">
          <mxGeometry x="282" y="849" width="1200" height="10" as="geometry" />
        </mxCell>
        <mxCell id="1257a543d1cacc4b-51" style="edgeStyle=orthogonalEdgeStyle;rounded=0;html=1;startSize=10;endSize=10;jettySize=auto;orthogonalLoop=1;fontSize=14;endArrow=none;endFill=0;strokeColor=#808080;" parent="1" source="1257a543d1cacc4b-29" target="1257a543d1cacc4b-50" edge="1">
          <mxGeometry relative="1" as="geometry">
            <mxPoint x="516.3529411764707" y="963" as="targetPoint" />
            <mxPoint x="1449.294117647059" y="963" as="sourcePoint" />
            <Array as="points">
              <mxPoint x="1449" y="853" />
            </Array>
          </mxGeometry>
        </mxCell>
        <mxCell id="1257a543d1cacc4b-52" value="Metrex" style="text;strokeColor=none;fillColor=none;html=1;fontSize=24;fontStyle=1;verticalAlign=middle;align=center;" parent="1" vertex="1">
          <mxGeometry x="160" y="60" width="1420" height="40" as="geometry" />
        </mxCell>
        <mxCell id="-EyrNSprZyw8wpIVBh2r-13" style="edgeStyle=none;rounded=0;orthogonalLoop=1;jettySize=auto;html=1;exitX=0.5;exitY=1;exitDx=0;exitDy=0;exitPerimeter=0;endArrow=none;endFill=0;fillColor=#dae8fc;strokeColor=#6c8ebf;" edge="1" parent="1" source="-EyrNSprZyw8wpIVBh2r-1" target="-EyrNSprZyw8wpIVBh2r-7">
          <mxGeometry relative="1" as="geometry" />
        </mxCell>
        <mxCell id="-EyrNSprZyw8wpIVBh2r-1" value="ISR4331-1" style="shape=mxgraph.cisco.routers.router;sketch=0;html=1;pointerEvents=1;dashed=0;fillColor=#036897;strokeColor=#ffffff;strokeWidth=2;verticalLabelPosition=bottom;verticalAlign=top;align=center;outlineConnect=0;" vertex="1" parent="1">
          <mxGeometry x="338.5" y="150" width="78" height="53" as="geometry" />
        </mxCell>
        <mxCell id="-EyrNSprZyw8wpIVBh2r-4" value="ISR4331-2" style="shape=mxgraph.cisco.routers.router;sketch=0;html=1;pointerEvents=1;dashed=0;fillColor=#036897;strokeColor=#ffffff;strokeWidth=2;verticalLabelPosition=bottom;verticalAlign=top;align=center;outlineConnect=0;" vertex="1" parent="1">
          <mxGeometry x="493" y="150" width="78" height="53" as="geometry" />
        </mxCell>
        <mxCell id="-EyrNSprZyw8wpIVBh2r-12" style="edgeStyle=none;rounded=0;orthogonalLoop=1;jettySize=auto;html=1;exitX=1;exitY=0.5;exitDx=0;exitDy=0;exitPerimeter=0;shape=link;" edge="1" parent="1" source="-EyrNSprZyw8wpIVBh2r-7" target="-EyrNSprZyw8wpIVBh2r-8">
          <mxGeometry relative="1" as="geometry" />
        </mxCell>
        <mxCell id="-EyrNSprZyw8wpIVBh2r-16" value="VPC" style="edgeLabel;html=1;align=center;verticalAlign=middle;resizable=0;points=[];" vertex="1" connectable="0" parent="-EyrNSprZyw8wpIVBh2r-12">
          <mxGeometry x="0.0055" y="2" relative="1" as="geometry">
            <mxPoint x="1" as="offset" />
          </mxGeometry>
        </mxCell>
        <mxCell id="-EyrNSprZyw8wpIVBh2r-7" value="N5k-A" style="shape=mxgraph.cisco.switches.layer_3_switch;sketch=0;html=1;pointerEvents=1;dashed=0;fillColor=#036897;strokeColor=#ffffff;strokeWidth=2;verticalLabelPosition=bottom;verticalAlign=top;align=center;outlineConnect=0;" vertex="1" parent="1">
          <mxGeometry x="345.5" y="300" width="64" height="64" as="geometry" />
        </mxCell>
        <mxCell id="-EyrNSprZyw8wpIVBh2r-8" value="N5k-B" style="shape=mxgraph.cisco.switches.layer_3_switch;sketch=0;html=1;pointerEvents=1;dashed=0;fillColor=#036897;strokeColor=#ffffff;strokeWidth=2;verticalLabelPosition=bottom;verticalAlign=top;align=center;outlineConnect=0;" vertex="1" parent="1">
          <mxGeometry x="500" y="300" width="64" height="64" as="geometry" />
        </mxCell>
        <mxCell id="-EyrNSprZyw8wpIVBh2r-9" value="VMS-1" style="shadow=0;dashed=0;html=1;strokeColor=none;fillColor=#4495D1;labelPosition=center;verticalLabelPosition=bottom;verticalAlign=top;shape=mxgraph.veeam.2d.vmware_host;fontSize=14;" vertex="1" parent="1">
          <mxGeometry x="240" y="460" width="124" height="120" as="geometry" />
        </mxCell>
        <mxCell id="-EyrNSprZyw8wpIVBh2r-10" value="VMS-3" style="shadow=0;dashed=0;html=1;strokeColor=none;fillColor=#4495D1;labelPosition=center;verticalLabelPosition=bottom;verticalAlign=top;shape=mxgraph.veeam.2d.vmware_host;fontSize=14;" vertex="1" parent="1">
          <mxGeometry x="540" y="460" width="124" height="120" as="geometry" />
        </mxCell>
        <mxCell id="-EyrNSprZyw8wpIVBh2r-11" value="" style="shape=mxgraph.cisco.storage.fc_storage;sketch=0;html=1;pointerEvents=1;dashed=0;fillColor=#036897;strokeColor=#ffffff;strokeWidth=2;verticalLabelPosition=bottom;verticalAlign=top;align=center;outlineConnect=0;" vertex="1" parent="1">
          <mxGeometry x="150" y="380" width="77" height="43" as="geometry" />
        </mxCell>
        <mxCell id="-EyrNSprZyw8wpIVBh2r-14" style="edgeStyle=none;rounded=0;orthogonalLoop=1;jettySize=auto;html=1;shape=link;exitX=1;exitY=0.5;exitDx=0;exitDy=0;exitPerimeter=0;entryX=0;entryY=0.5;entryDx=0;entryDy=0;entryPerimeter=0;" edge="1" parent="1" source="-EyrNSprZyw8wpIVBh2r-1" target="-EyrNSprZyw8wpIVBh2r-4">
          <mxGeometry relative="1" as="geometry">
            <mxPoint x="440" y="176" as="sourcePoint" />
            <mxPoint x="480" y="176" as="targetPoint" />
          </mxGeometry>
        </mxCell>
        <mxCell id="-EyrNSprZyw8wpIVBh2r-15" value="VRRP" style="edgeLabel;html=1;align=center;verticalAlign=middle;resizable=0;points=[];" vertex="1" connectable="0" parent="-EyrNSprZyw8wpIVBh2r-14">
          <mxGeometry x="-0.15" y="-4" relative="1" as="geometry">
            <mxPoint as="offset" />
          </mxGeometry>
        </mxCell>
        <mxCell id="-EyrNSprZyw8wpIVBh2r-17" style="edgeStyle=none;rounded=0;orthogonalLoop=1;jettySize=auto;html=1;exitX=0.5;exitY=1;exitDx=0;exitDy=0;exitPerimeter=0;endArrow=none;endFill=0;fillColor=#dae8fc;strokeColor=#6c8ebf;" edge="1" parent="1" source="-EyrNSprZyw8wpIVBh2r-1" target="-EyrNSprZyw8wpIVBh2r-8">
          <mxGeometry relative="1" as="geometry">
            <mxPoint x="413" y="213" as="sourcePoint" />
            <mxPoint x="393.82558139534876" y="310" as="targetPoint" />
          </mxGeometry>
        </mxCell>
        <mxCell id="-EyrNSprZyw8wpIVBh2r-19" style="edgeStyle=none;rounded=0;orthogonalLoop=1;jettySize=auto;html=1;endArrow=none;endFill=0;entryX=0.5;entryY=0;entryDx=0;entryDy=0;entryPerimeter=0;fillColor=#a20025;strokeColor=#6F0000;" edge="1" parent="1" source="-EyrNSprZyw8wpIVBh2r-4" target="-EyrNSprZyw8wpIVBh2r-8">
          <mxGeometry relative="1" as="geometry">
            <mxPoint x="387.5" y="213" as="sourcePoint" />
            <mxPoint x="542" y="310" as="targetPoint" />
          </mxGeometry>
        </mxCell>
        <mxCell id="-EyrNSprZyw8wpIVBh2r-20" style="edgeStyle=none;rounded=0;orthogonalLoop=1;jettySize=auto;html=1;endArrow=none;endFill=0;fillColor=#a20025;strokeColor=#6F0000;" edge="1" parent="1" source="-EyrNSprZyw8wpIVBh2r-7">
          <mxGeometry relative="1" as="geometry">
            <mxPoint x="397.5" y="223" as="sourcePoint" />
            <mxPoint x="530" y="200" as="targetPoint" />
          </mxGeometry>
        </mxCell>
        <mxCell id="-EyrNSprZyw8wpIVBh2r-21" value="Internet" style="shape=mxgraph.cisco.storage.cloud;sketch=0;html=1;pointerEvents=1;dashed=0;fillColor=#036897;strokeColor=#ffffff;strokeWidth=2;verticalLabelPosition=bottom;verticalAlign=top;align=center;outlineConnect=0;" vertex="1" parent="1">
          <mxGeometry x="356.5" y="20" width="186" height="106" as="geometry" />
        </mxCell>
      </root>
    </mxGraphModel>
  </diagram>
</mxfile>
